{"accessors" : [{"bufferView" : 0, "byteOffset" : 0, "componentType" : 5123, "count" : 864, "type" : "SCALAR", "max" : [145], "min" : [0]}, {"bufferView" : 1, "byteOffset" : 0, "componentType" : 5126, "count" : 146, "type" : "VEC3", "max" : [-12871.255859375, -787.3391723632812, -229.57928466796875], "min" : [-12902.3095703125, -807.6497192382812, -236.10723876953125], "name" : "POSITION"}, {"bufferView" : 0, "byteOffset" : 1728, "componentType" : 5123, "count" : 1728, "type" : "SCALAR", "max" : [289], "min" : [0]}, {"bufferView" : 2, "byteOffset" : 0, "componentType" : 5126, "count" : 290, "type" : "VEC3", "max" : [-12990.76953125, -759.4984130859375, -236.01028442382812], "min" : [-13011.9716796875, -777.9843139648438, -252.38430786132812], "name" : "POSITION"}, {"bufferView" : 0, "byteOffset" : 5184, "componentType" : 5123, "count" : 69108, "type" : "SCALAR", "max" : [11519], "min" : [0]}, {"bufferView" : 3, "byteOffset" : 0, "componentType" : 5126, "count" : 11520, "type" : "VEC3", "max" : [-12893.8193359375, -775.9721069335938, -215.40968322753906], "min" : [-12982.2978515625, -806.14697265625, -249.25775146484375], "name" : "POSITION"}, {"bufferView" : 0, "byteOffset" : 143400, "componentType" : 5123, "count" : 396, "type" : "SCALAR", "max" : [67], "min" : [0]}, {"bufferView" : 4, "byteOffset" : 0, "componentType" : 5126, "count" : 68, "type" : "VEC3", "max" : [-12937.1494140625, -792.9812622070312, -209.68016052246094], "min" : [-12949.7958984375, -811.7490844726562, -220.2430419921875], "name" : "POSITION"}, {"bufferView" : 0, "byteOffset" : 144192, "componentType" : 5123, "count" : 792, "type" : "SCALAR", "max" : [133], "min" : [0]}, {"bufferView" : 5, "byteOffset" : 0, "componentType" : 5126, "count" : 134, "type" : "VEC3", "max" : [-12939.0166015625, -801.810546875, -228.17971801757812], "min" : [-12950.212890625, -822.5039672851562, -241.78599548339844], "name" : "POSITION"}, {"bufferView" : 0, "byteOffset" : 145776, "componentType" : 5123, "count" : 468, "type" : "SCALAR", "max" : [79], "min" : [0]}, {"bufferView" : 6, "byteOffset" : 0, "componentType" : 5126, "count" : 80, "type" : "VEC3", "max" : [-12961.9033203125, -796.4796142578125, -224.56378173828125], "min" : [-12978.9375, -810.5641479492188, -236.54266357421875], "name" : "POSITION"}, {"bufferView" : 0, "byteOffset" : 146712, "componentType" : 5123, "count" : 504, "type" : "SCALAR", "max" : [85], "min" : [0]}, {"bufferView" : 7, "byteOffset" : 0, "componentType" : 5126, "count" : 86, "type" : "VEC3", "max" : [-12960.9521484375, -790.7015991210938, -214.21536254882812], "min" : [-12979.3056640625, -811.2119750976562, -223.0698699951172], "name" : "POSITION"}, {"bufferView" : 0, "byteOffset" : 147720, "componentType" : 5123, "count" : 2880, "type" : "SCALAR", "max" : [481], "min" : [0]}, {"bufferView" : 8, "byteOffset" : 0, "componentType" : 5126, "count" : 482, "type" : "VEC3", "max" : [-12975.9697265625, -808.6621704101562, -214.80926513671875], "min" : [-12980.6181640625, -811.2750854492188, -218.86920166015625], "name" : "POSITION"}, {"bufferView" : 0, "byteOffset" : 153480, "componentType" : 5123, "count" : 1440, "type" : "SCALAR", "max" : [241], "min" : [0]}, {"bufferView" : 9, "byteOffset" : 0, "componentType" : 5126, "count" : 242, "type" : "VEC3", "max" : [-12988.86328125, -780.3423461914062, -225.42514038085938], "min" : [-12999.5625, -787.8723754882812, -232.8680419921875], "name" : "POSITION"}, {"bufferView" : 0, "byteOffset" : 156360, "componentType" : 5123, "count" : 2880, "type" : "SCALAR", "max" : [481], "min" : [0]}, {"bufferView" : 10, "byteOffset" : 0, "componentType" : 5126, "count" : 482, "type" : "VEC3", "max" : [-12986.4765625, -778.1549682617188, -231.145263671875], "min" : [-12997.232421875, -788.9662475585938, -241.9598388671875], "name" : "POSITION"}, {"bufferView" : 0, "byteOffset" : 162120, "componentType" : 5123, "count" : 2880, "type" : "SCALAR", "max" : [481], "min" : [0]}, {"bufferView" : 11, "byteOffset" : 0, "componentType" : 5126, "count" : 482, "type" : "VEC3", "max" : [-12985.4462890625, -774.17041015625, -220.92286682128906], "min" : [-12996.2021484375, -784.981689453125, -231.7374267578125], "name" : "POSITION"}, {"bufferView" : 0, "byteOffset" : 167880, "componentType" : 5123, "count" : 2880, "type" : "SCALAR", "max" : [481], "min" : [0]}, {"bufferView" : 12, "byteOffset" : 0, "componentType" : 5126, "count" : 482, "type" : "VEC3", "max" : [-12991.1416015625, -780.0986938476562, -236.1084442138672], "min" : [-12996.8466796875, -785.8329467773438, -241.8444366455078], "name" : "POSITION"}, {"bufferView" : 0, "byteOffset" : 173640, "componentType" : 5123, "count" : 2880, "type" : "SCALAR", "max" : [481], "min" : [0]}, {"bufferView" : 13, "byteOffset" : 0, "componentType" : 5126, "count" : 482, "type" : "VEC3", "max" : [-12990.1259765625, -774.3978881835938, -222.2521209716797], "min" : [-12995.8310546875, -780.1321411132812, -227.9881134033203], "name" : "POSITION"}, {"bufferView" : 0, "byteOffset" : 179400, "componentType" : 5123, "count" : 504, "type" : "SCALAR", "max" : [85], "min" : [0]}, {"bufferView" : 14, "byteOffset" : 0, "componentType" : 5126, "count" : 86, "type" : "VEC3", "max" : [-12910.6044921875, -797.2893676757812, -209.1476287841797], "min" : [-12923.2060546875, -813.698974609375, -223.4461669921875], "name" : "POSITION"}, {"bufferView" : 0, "byteOffset" : 180408, "componentType" : 5123, "count" : 14784, "type" : "SCALAR", "max" : [2465], "min" : [0]}, {"bufferView" : 15, "byteOffset" : 0, "componentType" : 5126, "count" : 2466, "type" : "VEC3", "max" : [-12977.6435546875, -774.5261840820312, -221.0447540283203], "min" : [-12998.2236328125, -792.6566772460938, -241.2101593017578], "name" : "POSITION"}, {"bufferView" : 0, "byteOffset" : 209976, "componentType" : 5123, "count" : 2880, "type" : "SCALAR", "max" : [481], "min" : [0]}, {"bufferView" : 16, "byteOffset" : 0, "componentType" : 5126, "count" : 482, "type" : "VEC3", "max" : [-12940.6796875, -819.97216796875, -228.6092987060547], "min" : [-12944.83984375, -823.20947265625, -232.73533630371094], "name" : "POSITION"}, {"bufferView" : 0, "byteOffset" : 215736, "componentType" : 5123, "count" : 1728, "type" : "SCALAR", "max" : [289], "min" : [0]}, {"bufferView" : 17, "byteOffset" : 0, "componentType" : 5126, "count" : 290, "type" : "VEC3", "max" : [-12989.4892578125, -761.1150512695312, -223.53746032714844], "min" : [-13017.5341796875, -775.8157348632812, -233.2976531982422], "name" : "POSITION"}, {"bufferView" : 0, "byteOffset" : 219192, "componentType" : 5123, "count" : 2880, "type" : "SCALAR", "max" : [481], "min" : [0]}, {"bufferView" : 18, "byteOffset" : 0, "componentType" : 5126, "count" : 482, "type" : "VEC3", "max" : [-13016.5771484375, -762.2249755859375, -222.6990509033203], "min" : [-13018.3603515625, -764.0169677734375, -224.49156188964844], "name" : "POSITION"}, {"bufferView" : 0, "byteOffset" : 224952, "componentType" : 5123, "count" : 2880, "type" : "SCALAR", "max" : [481], "min" : [0]}, {"bufferView" : 19, "byteOffset" : 0, "componentType" : 5126, "count" : 482, "type" : "VEC3", "max" : [-13011.1005859375, -759.431396484375, -251.21844482421875], "min" : [-13012.8837890625, -761.223388671875, -253.01095581054688], "name" : "POSITION"}, {"bufferView" : 0, "byteOffset" : 230712, "componentType" : 5123, "count" : 2880, "type" : "SCALAR", "max" : [481], "min" : [0]}, {"bufferView" : 20, "byteOffset" : 0, "componentType" : 5126, "count" : 482, "type" : "VEC3", "max" : [-12946.0927734375, -810.4640502929688, -209.1608428955078], "min" : [-12950.7412109375, -812.6763305664062, -213.45616149902344], "name" : "POSITION"}, {"bufferView" : 0, "byteOffset" : 236472, "componentType" : 5123, "count" : 2880, "type" : "SCALAR", "max" : [481], "min" : [0]}, {"bufferView" : 21, "byteOffset" : 0, "componentType" : 5126, "count" : 482, "type" : "VEC3", "max" : [-12909.318359375, -809.5519409179688, -208.424560546875], "min" : [-12912.693359375, -814.2131958007812, -211.86016845703125], "name" : "POSITION"}, {"bufferView" : 0, "byteOffset" : 242232, "componentType" : 5123, "count" : 2880, "type" : "SCALAR", "max" : [481], "min" : [0]}, {"bufferView" : 22, "byteOffset" : 0, "componentType" : 5126, "count" : 482, "type" : "VEC3", "max" : [-12975.599609375, -807.0849609375, -224.39266967773438], "min" : [-12980.265625, -811.042236328125, -227.12307739257812], "name" : "POSITION"}, {"bufferView" : 0, "byteOffset" : 247992, "componentType" : 5123, "count" : 17268, "type" : "SCALAR", "max" : [2879], "min" : [0]}, {"bufferView" : 23, "byteOffset" : 0, "componentType" : 5126, "count" : 2880, "type" : "VEC3", "max" : [-12954.9560546875, -781.21826171875, -243.27565002441406], "min" : [-12996.208984375, -791.9931030273438, -341.6366882324219], "name" : "POSITION"}, {"bufferView" : 0, "byteOffset" : 282528, "componentType" : 5123, "count" : 17268, "type" : "SCALAR", "max" : [2879], "min" : [0]}, {"bufferView" : 24, "byteOffset" : 0, "componentType" : 5126, "count" : 2880, "type" : "VEC3", "max" : [-12949.4697265625, -711.2113037109375, -151.3681640625], "min" : [-12986.37109375, -776.0863647460938, -230.09426879882812], "name" : "POSITION"}, {"bufferView" : 0, "byteOffset" : 317064, "componentType" : 5123, "count" : 17268, "type" : "SCALAR", "max" : [2879], "min" : [0]}, {"bufferView" : 25, "byteOffset" : 0, "componentType" : 5126, "count" : 2880, "type" : "VEC3", "max" : [-12858.9306640625, -782.3951416015625, -244.39501953125], "min" : [-12952.982421875, -795.58935546875, -362.93890380859375], "name" : "POSITION"}, {"bufferView" : 0, "byteOffset" : 351600, "componentType" : 5123, "count" : 2880, "type" : "SCALAR", "max" : [481], "min" : [0]}, {"bufferView" : 26, "byteOffset" : 0, "componentType" : 5126, "count" : 482, "type" : "VEC3", "max" : [-12912.90625, -822.8007202148438, -231.5240478515625], "min" : [-12916.978515625, -827.0563354492188, -234.69732666015625], "name" : "POSITION"}, {"bufferView" : 0, "byteOffset" : 357360, "componentType" : 5123, "count" : 17268, "type" : "SCALAR", "max" : [2879], "min" : [0]}, {"bufferView" : 27, "byteOffset" : 0, "componentType" : 5126, "count" : 2880, "type" : "VEC3", "max" : [-12844.2763671875, -705.724365234375, -151.70660400390625], "min" : [-12951.6904296875, -776.6499633789062, -232.87042236328125], "name" : "POSITION"}, {"bufferView" : 0, "byteOffset" : 391896, "componentType" : 5123, "count" : 18900, "type" : "SCALAR", "max" : [3151], "min" : [0]}, {"bufferView" : 28, "byteOffset" : 0, "componentType" : 5126, "count" : 3152, "type" : "VEC3", "max" : [-12994.4755859375, -777.9014892578125, -226.50343322753906], "min" : [-13034.3017578125, -791.34423828125, -238.68316650390625], "name" : "POSITION"}, {"bufferView" : 0, "byteOffset" : 429696, "componentType" : 5123, "count" : 432, "type" : "SCALAR", "max" : [73], "min" : [0]}, {"bufferView" : 29, "byteOffset" : 0, "componentType" : 5126, "count" : 74, "type" : "VEC3", "max" : [-12914.39453125, -802.95361328125, -232.66159057617188], "min" : [-12922.20703125, -825.8087158203125, -243.13082885742188], "name" : "POSITION"}, {"bufferView" : 30, "byteOffset" : 0, "componentType" : 5126, "count" : 35938, "type" : "VEC3", "max" : [-12844.2763671875, -705.724365234375, -151.3681640625], "min" : [-13034.3017578125, -827.0563354492188, -362.93890380859375], "name" : "POSITION"}, {"bufferView" : 30, "byteOffset" : 12, "componentType" : 5126, "count" : 35938, "type" : "VEC3", "max" : [1.0000017881393433, 0.9999492168426514, 0.9999125003814697], "min" : [-0.9999678730964661, -0.9998821020126343, -0.999871015548706], "name" : "NORMAL"}], "asset" : {"generator" : "Aspose.3D 24.9.1", "version" : "2.0"}, "buffers" : [{"uri" : "data:application/octet-stream;base64,", "byteLength" : 1724452}], "bufferViews" : [{"buffer" : 0, "byteOffset" : 0, "byteLength" : 430560, "target" : 34963}, {"buffer" : 0, "byteOffset" : 430564, "byteLength" : 1752, "byteStride" : 12, "target" : 34962}, {"buffer" : 0, "byteOffset" : 432320, "byteLength" : 3480, "byteStride" : 12, "target" : 34962}, {"buffer" : 0, "byteOffset" : 435804, "byteLength" : 138240, "byteStride" : 12, "target" : 34962}, {"buffer" : 0, "byteOffset" : 574048, "byteLength" : 816, "byteStride" : 12, "target" : 34962}, {"buffer" : 0, "byteOffset" : 574868, "byteLength" : 1608, "byteStride" : 12, "target" : 34962}, {"buffer" : 0, "byteOffset" : 576480, "byteLength" : 960, "byteStride" : 12, "target" : 34962}, {"buffer" : 0, "byteOffset" : 577444, "byteLength" : 1032, "byteStride" : 12, "target" : 34962}, {"buffer" : 0, "byteOffset" : 578480, "byteLength" : 5784, "byteStride" : 12, "target" : 34962}, {"buffer" : 0, "byteOffset" : 584268, "byteLength" : 2904, "byteStride" : 12, "target" : 34962}, {"buffer" : 0, "byteOffset" : 587176, "byteLength" : 5784, "byteStride" : 12, "target" : 34962}, {"buffer" : 0, "byteOffset" : 592964, "byteLength" : 5784, "byteStride" : 12, "target" : 34962}, {"buffer" : 0, "byteOffset" : 598752, "byteLength" : 5784, "byteStride" : 12, "target" : 34962}, {"buffer" : 0, "byteOffset" : 604540, "byteLength" : 5784, "byteStride" : 12, "target" : 34962}, {"buffer" : 0, "byteOffset" : 610328, "byteLength" : 1032, "byteStride" : 12, "target" : 34962}, {"buffer" : 0, "byteOffset" : 611364, "byteLength" : 29592, "byteStride" : 12, "target" : 34962}, {"buffer" : 0, "byteOffset" : 640960, "byteLength" : 5784, "byteStride" : 12, "target" : 34962}, {"buffer" : 0, "byteOffset" : 646748, "byteLength" : 3480, "byteStride" : 12, "target" : 34962}, {"buffer" : 0, "byteOffset" : 650232, "byteLength" : 5784, "byteStride" : 12, "target" : 34962}, {"buffer" : 0, "byteOffset" : 656020, "byteLength" : 5784, "byteStride" : 12, "target" : 34962}, {"buffer" : 0, "byteOffset" : 661808, "byteLength" : 5784, "byteStride" : 12, "target" : 34962}, {"buffer" : 0, "byteOffset" : 667596, "byteLength" : 5784, "byteStride" : 12, "target" : 34962}, {"buffer" : 0, "byteOffset" : 673384, "byteLength" : 5784, "byteStride" : 12, "target" : 34962}, {"buffer" : 0, "byteOffset" : 679172, "byteLength" : 34560, "byteStride" : 12, "target" : 34962}, {"buffer" : 0, "byteOffset" : 713736, "byteLength" : 34560, "byteStride" : 12, "target" : 34962}, {"buffer" : 0, "byteOffset" : 748300, "byteLength" : 34560, "byteStride" : 12, "target" : 34962}, {"buffer" : 0, "byteOffset" : 782864, "byteLength" : 5784, "byteStride" : 12, "target" : 34962}, {"buffer" : 0, "byteOffset" : 788652, "byteLength" : 34560, "byteStride" : 12, "target" : 34962}, {"buffer" : 0, "byteOffset" : 823216, "byteLength" : 37824, "byteStride" : 12, "target" : 34962}, {"buffer" : 0, "byteOffset" : 861044, "byteLength" : 888, "byteStride" : 12, "target" : 34962}, {"buffer" : 0, "byteOffset" : 861936, "byteLength" : 862512, "byteStride" : 24, "target" : 34962}], "meshes" : [{"primitives" : [{"attributes" : {"POSITION" : 1}, "indices" : 0, "mode" : 4}], "name" : ""}, {"primitives" : [{"attributes" : {"POSITION" : 3}, "indices" : 2, "mode" : 4}], "name" : ""}, {"primitives" : [{"attributes" : {"POSITION" : 5}, "indices" : 4, "mode" : 4}], "name" : ""}, {"primitives" : [{"attributes" : {"POSITION" : 7}, "indices" : 6, "mode" : 4}], "name" : ""}, {"primitives" : [{"attributes" : {"POSITION" : 9}, "indices" : 8, "mode" : 4}], "name" : ""}, {"primitives" : [{"attributes" : {"POSITION" : 11}, "indices" : 10, "mode" : 4}], "name" : ""}, {"primitives" : [{"attributes" : {"POSITION" : 13}, "indices" : 12, "mode" : 4}], "name" : ""}, {"primitives" : [{"attributes" : {"POSITION" : 15}, "indices" : 14, "mode" : 4}], "name" : ""}, {"primitives" : [{"attributes" : {"POSITION" : 17}, "indices" : 16, "mode" : 4}], "name" : ""}, {"primitives" : [{"attributes" : {"POSITION" : 19}, "indices" : 18, "mode" : 4}], "name" : ""}, {"primitives" : [{"attributes" : {"POSITION" : 21}, "indices" : 20, "mode" : 4}], "name" : ""}, {"primitives" : [{"attributes" : {"POSITION" : 23}, "indices" : 22, "mode" : 4}], "name" : ""}, {"primitives" : [{"attributes" : {"POSITION" : 25}, "indices" : 24, "mode" : 4}], "name" : ""}, {"primitives" : [{"attributes" : {"POSITION" : 27}, "indices" : 26, "mode" : 4}], "name" : ""}, {"primitives" : [{"attributes" : {"POSITION" : 29}, "indices" : 28, "mode" : 4}], "name" : ""}, {"primitives" : [{"attributes" : {"POSITION" : 31}, "indices" : 30, "mode" : 4}], "name" : ""}, {"primitives" : [{"attributes" : {"POSITION" : 33}, "indices" : 32, "mode" : 4}], "name" : ""}, {"primitives" : [{"attributes" : {"POSITION" : 35}, "indices" : 34, "mode" : 4}], "name" : ""}, {"primitives" : [{"attributes" : {"POSITION" : 37}, "indices" : 36, "mode" : 4}], "name" : ""}, {"primitives" : [{"attributes" : {"POSITION" : 39}, "indices" : 38, "mode" : 4}], "name" : ""}, {"primitives" : [{"attributes" : {"POSITION" : 41}, "indices" : 40, "mode" : 4}], "name" : ""}, {"primitives" : [{"attributes" : {"POSITION" : 43}, "indices" : 42, "mode" : 4}], "name" : ""}, {"primitives" : [{"attributes" : {"POSITION" : 45}, "indices" : 44, "mode" : 4}], "name" : ""}, {"primitives" : [{"attributes" : {"POSITION" : 47}, "indices" : 46, "mode" : 4}], "name" : ""}, {"primitives" : [{"attributes" : {"POSITION" : 49}, "indices" : 48, "mode" : 4}], "name" : ""}, {"primitives" : [{"attributes" : {"POSITION" : 51}, "indices" : 50, "mode" : 4}], "name" : ""}, {"primitives" : [{"attributes" : {"POSITION" : 53}, "indices" : 52, "mode" : 4}], "name" : ""}, {"primitives" : [{"attributes" : {"POSITION" : 55}, "indices" : 54, "mode" : 4}], "name" : ""}, {"primitives" : [{"attributes" : {"POSITION" : 57}, "indices" : 56, "mode" : 4}], "name" : ""}, {"primitives" : [{"attributes" : {"POSITION" : 58, "NORMAL" : 59}, "mode" : 0}], "name" : ""}], "nodes" : [{"mesh" : 0, "name" : "ihadlo"}, {"mesh" : 1, "name" : "Cylinder01"}, {"mesh" : 2, "name" : "tlo"}, {"mesh" : 3, "name" : "noha_04"}, {"mesh" : 4, "name" : "noha_03"}, {"mesh" : 5, "name" : "noha_02"}, {"mesh" : 6, "name" : "noha_01"}, {"mesh" : 7, "name" : "Sphere07"}, {"mesh" : 8, "name" : "trychtek"}, {"mesh" : 9, "name" : "Sphere01"}, {"mesh" : 10, "name" : "Sphere02"}, {"mesh" : 11, "name" : "Sphere03"}, {"mesh" : 12, "name" : "Sphere04"}, {"mesh" : 13, "name" : "noha_07"}, {"mesh" : 14, "name" : "hlava"}, {"mesh" : 15, "name" : "Sphere12"}, {"mesh" : 16, "name" : "Cylinder02"}, {"mesh" : 17, "name" : "Sphere05"}, {"mesh" : 18, "name" : "Sphere06"}, {"mesh" : 19, "name" : "Sphere08"}, {"mesh" : 20, "name" : "Sphere10"}, {"mesh" : 21, "name" : "Sphere11"}, {"mesh" : 22, "name" : "pedn_kdlo_02"}, {"mesh" : 23, "name" : "pedn_kdlo_01"}, {"mesh" : 24, "name" : "zadn_kdlo_02"}, {"mesh" : 25, "name" : "Sphere14"}, {"mesh" : 26, "name" : "kdlo_zadn_01"}, {"mesh" : 27, "name" : "sosk"}, {"mesh" : 28, "name" : "noha_08"}, {"mesh" : 29, "name" : ""}], "scene" : 0, "scenes" : [{"nodes" : [0, 1, 2, 3, 4, 5, 6, 7, 8, 9, 10, 11, 12, 13, 14, 15, 16, 17, 18, 19, 20, 21, 22, 23, 24, 25, 26, 27, 28, 29]}]}