{"accessors" : [{"bufferView" : 0, "byteOffset" : 0, "componentType" : 5123, "count" : 1584, "type" : "SCALAR", "max" : [322], "min" : [0]}, {"bufferView" : 1, "byteOffset" : 0, "componentType" : 5126, "count" : 323, "type" : "VEC3", "max" : [5.926139831542969, 43.114288330078125, 48.495609283447266], "min" : [5.494289875030518, 42.68244171142578, 48.063758850097656], "name" : "POSITION"}, {"bufferView" : 1, "byteOffset" : 12, "componentType" : 5126, "count" : 323, "type" : "VEC2", "max" : [1, 1], "min" : [0, 0], "name" : "TEXCOORD_0"}, {"bufferView" : 1, "byteOffset" : 20, "componentType" : 5126, "count" : 323, "type" : "VEC3", "max" : [1.0000044107437134, 1.0000044107437134, 1.0000044107437134], "min" : [-1.0000044107437134, -1.0000044107437134, -1.0000044107437134], "name" : "NORMAL"}, {"bufferView" : 0, "byteOffset" : 3168, "componentType" : 5123, "count" : 1584, "type" : "SCALAR", "max" : [322], "min" : [0]}, {"bufferView" : 2, "byteOffset" : 0, "componentType" : 5126, "count" : 323, "type" : "VEC3", "max" : [5.9527201652526855, 44.51789855957031, 48.46434020996094], "min" : [5.520870208740234, 44.0860481262207, 48.03248977661133], "name" : "POSITION"}, {"bufferView" : 2, "byteOffset" : 12, "componentType" : 5126, "count" : 323, "type" : "VEC2", "max" : [1, 1], "min" : [0, 0], "name" : "TEXCOORD_0"}, {"bufferView" : 2, "byteOffset" : 20, "componentType" : 5126, "count" : 323, "type" : "VEC3", "max" : [1.0000044107437134, 1.0000044107437134, 1.0000044107437134], "min" : [-1.0000044107437134, -1.0000044107437134, -1.0000044107437134], "name" : "NORMAL"}, {"bufferView" : 0, "byteOffset" : 6336, "componentType" : 5123, "count" : 13314, "type" : "SCALAR", "max" : [2548], "min" : [0]}, {"bufferView" : 3, "byteOffset" : 0, "componentType" : 5126, "count" : 2549, "type" : "VEC3", "max" : [9.27023983001709, 44.00434112548828, 47.67108917236328], "min" : [6.351039886474609, 43.22214889526367, 47.08816909790039], "name" : "POSITION"}, {"bufferView" : 3, "byteOffset" : 12, "componentType" : 5126, "count" : 2549, "type" : "VEC2", "max" : [0.65625, 1], "min" : [0.15327000617980957, 0], "name" : "TEXCOORD_0"}, {"bufferView" : 0, "byteOffset" : 32964, "componentType" : 5123, "count" : 119763, "type" : "SCALAR", "max" : [26914], "min" : [0]}, {"bufferView" : 4, "byteOffset" : 0, "componentType" : 5126, "count" : 26915, "type" : "VEC3", "max" : [6.831180095672607, 44.95539093017578, 48.92586135864258], "min" : [2.521049976348877, 42.24013137817383, 47.34392166137695], "name" : "POSITION"}, {"bufferView" : 4, "byteOffset" : 12, "componentType" : 5126, "count" : 26915, "type" : "VEC2", "max" : [17.5, 1], "min" : [2.5, -9], "name" : "TEXCOORD_0"}, {"bufferView" : 0, "byteOffset" : 272492, "componentType" : 5123, "count" : 55305, "type" : "SCALAR", "max" : [18725], "min" : [0]}, {"bufferView" : 5, "byteOffset" : 0, "componentType" : 5126, "count" : 18726, "type" : "VEC3", "max" : [4.947110176086426, 44.60818099975586, 48.82217025756836], "min" : [-8.810669898986816, 27.220529556274414, 44.48822021484375], "name" : "POSITION"}, {"bufferView" : 5, "byteOffset" : 12, "componentType" : 5126, "count" : 18726, "type" : "VEC2", "max" : [4, 1], "min" : [0, -59], "name" : "TEXCOORD_0"}], "asset" : {"generator" : "Aspose.3D 24.9.1", "version" : "2.0"}, "buffers" : [{"uri" : "data:application/octet-stream;base64,", "byteLength" : 1367600}], "bufferViews" : [{"buffer" : 0, "byteOffset" : 0, "byteLength" : 383104, "target" : 34963}, {"buffer" : 0, "byteOffset" : 383108, "byteLength" : 10336, "byteStride" : 32, "target" : 34962}, {"buffer" : 0, "byteOffset" : 393448, "byteLength" : 10336, "byteStride" : 32, "target" : 34962}, {"buffer" : 0, "byteOffset" : 403788, "byteLength" : 50980, "byteStride" : 20, "target" : 34962}, {"buffer" : 0, "byteOffset" : 454772, "byteLength" : 538300, "byteStride" : 20, "target" : 34962}, {"buffer" : 0, "byteOffset" : 993076, "byteLength" : 374520, "byteStride" : 20, "target" : 34962}], "meshes" : [{"primitives" : [{"attributes" : {"POSITION" : 1, "TEXCOORD_0" : 2, "NORMAL" : 3}, "indices" : 0, "mode" : 4}], "name" : ""}, {"primitives" : [{"attributes" : {"POSITION" : 5, "TEXCOORD_0" : 6, "NORMAL" : 7}, "indices" : 4, "mode" : 4}], "name" : ""}, {"primitives" : [{"attributes" : {"POSITION" : 9, "TEXCOORD_0" : 10}, "indices" : 8, "mode" : 4}], "name" : ""}, {"primitives" : [{"attributes" : {"POSITION" : 12, "TEXCOORD_0" : 13}, "indices" : 11, "mode" : 4}], "name" : ""}, {"primitives" : [{"attributes" : {"POSITION" : 15, "TEXCOORD_0" : 16}, "indices" : 14, "mode" : 4}], "name" : ""}], "nodes" : [{"mesh" : 0, "name" : "nurbsSphere2"}, {"mesh" : 1, "name" : "nurbsSphere3"}, {"mesh" : 2, "name" : "pCylinder1"}, {"mesh" : 3, "name" : "pasted__pCube2"}, {"mesh" : 4, "name" : "loftedSurface2"}], "scene" : 0, "scenes" : [{"nodes" : [0, 1, 2, 3, 4]}]}